<svg xmlns="http://www.w3.org/2000/svg" height="48" viewBox="0 -960 960 960" width="48" fill="#1d4df4">
  <path d="M226-80q-44 0-75-31t-31-75q0-44 31-75t75-31q11 0 19.5 1.5T264-286l118-118q-17-24-24.5-51.5T350-512q0-75 52.5-127.5T530-692q18 0 34 3t31 9l-82 82 57 57 81-81q6 15 9.5 31t3.5 35q0 74-52 126.5T485-377q-29 0-57-7.5T377-409L259-291q4 10 5.5 18.5T266-254q0 44-31 75t-75 31Zm508-210q-12-17-27.5-31T673-347l141-141-57-57-140 140q-12-18-26-33.5T559-467l194-193h-83v-80h240v240h-80v-84L634-390q13 15 23 31.5t19 34.5l58 34Zm-508 50q-11 0-18.5-7.5T200-266q0-11 7.5-18.5T226-292q11 0 18.5 7.5T252-266q0 11-7.5 18.5T226-240Z"/>
</svg>
