<svg width="280" height="86" viewBox="0 0 280 86" fill="none" xmlns="http://www.w3.org/2000/svg">
  <path d="M31.1 54.4C27.5 54.4 24.5 53.7 22.1 52.3C19.7 50.9 17.9 49 16.7 46.6C15.5 44.2 14.9 41.5 14.9 38.5C14.9 35.6 15.5 33 16.7 30.6C17.9 28.2 19.7 26.3 22.1 24.8C24.5 23.3 27.5 22.6 31.1 22.6C33.9 22.6 36.3 23.1 38.3 24.2C40.3 25.2 41.9 26.7 43.1 28.5L37.7 32.4C36.9 31.2 35.9 30.2 34.7 29.6C33.5 28.9 32.2 28.6 30.7 28.6C28.3 28.6 26.3 29.4 24.9 31C23.5 32.5 22.8 34.7 22.8 37.4C22.8 40.1 23.5 42.2 24.9 43.8C26.3 45.4 28.3 46.2 30.7 46.2C32.2 46.2 33.5 45.9 34.7 45.2C35.9 44.6 36.9 43.6 37.7 42.4L43.1 46.3C41.9 48.2 40.3 49.6 38.3 50.7C36.3 51.8 33.9 52.3 31.1 52.3" fill="white"/>
  <path d="M50.4 54V23H58V54H50.4Z" fill="white"/>
  <path d="M66.8 54V23H74.4V31.2H89.6V23H97.2V54H89.6V37.6H74.4V54H66.8Z" fill="white"/>
  <path d="M106.4 54V23H132.4V29.4H114V35.4H130V41.8H114V47.6H132.4V54H106.4Z" fill="white"/>
  <path d="M139.6 54V23H147.2V47.6H164.4V54H139.6Z" fill="white"/>
  <path d="M170.8 54V23H178.4V54H170.8Z" fill="white"/>
  <path d="M186.8 54V23H210.8V29.4H194.4V35.4H208V41.8H194.4V47.6H210.8V54H186.8Z" fill="white"/>
  <path d="M218.4 54V23H226L238.8 41.8V23H246V54H238.4L225.6 35.2V54H218.4Z" fill="white"/>
  <path d="M266.4 54L253.2 23H261.6L271.2 47.2L280.8 23H289.2L276 54H266.4Z" fill="white"/>
  <path d="M4.4 38.5C4.4 29.7 9.3 22.1 16.7 18.5V8.8C4.5 13.2 -4 25 -4 38.5C-4 52 4.5 63.8 16.7 68.2V58.5C9.3 54.9 4.4 47.3 4.4 38.5Z" fill="#F5AB40"/>
  <path d="M130.8 7.1H139.2V76.5H130.8V7.1Z" fill="#F5AB40"/>
  <path d="M151.7 7.1V54.6H160.1V7.1H151.7Z" fill="#F5AB40"/>
</svg>
